<?xml version="1.0" encoding="UTF-8"?>
<svg id="Layer_1" data-name="Layer 1" xmlns="http://www.w3.org/2000/svg" viewBox="0 0 1595.08 436.87">
  <defs>
    <style>
      .cls-1 {
        fill: #396;
        stroke-width: 0px;
      }
    </style>
  </defs>
  <polygon class="cls-1" points="0 343.49 58.98 343.49 58.98 324.53 58.98 324.53 58.98 235.31 117.97 201.07 177.28 235.31 177.25 343.49 235.93 343.49 235.93 324.53 235.93 242.48 235.93 201.07 117.97 133.25 58.98 167.31 58.98 2.41 .65 2.41 .08 201.32 0 201.36 0 226.2 0 228.01 0 249.35 0 343.49"/>
  <path class="cls-1" d="m400.23,348.18c63.19,0,117.96-45.95,117.96-102.21,0-60.95-49.5-102.2-117.96-102.2-63.19,0-117.96,45.95-117.96,102.2,0,60.95,49.5,102.21,117.96,102.21Zm0-155.65c34.76,0,58.98,22.5,58.98,53.45s-24.22,53.45-58.98,53.45-58.98-23.44-58.98-53.45,25.28-53.45,58.98-53.45Z"/>
  <path class="cls-1" d="m1082.7,348.18c31.6,0,60.03-11.25,81.1-30.01l-35.81-32.82c-15.8,13.13-26.33,17.82-45.29,17.82-29.49,0-52.66-15.94-60.03-39.38h177.99v-17.82c-4.21-63.76-49.5-102.2-117.96-102.2-63.19,0-117.96,45.95-117.96,102.2,0,60.95,49.5,102.21,117.96,102.21Zm0-162.22c30.54,0,51.61,15,60.03,37.51h-119.01c8.43-21.57,29.49-37.51,58.98-37.51Z"/>
  <rect class="cls-1" x="1260.16" y="2.18" width="58.98" height="341.31"/>
  <polygon class="cls-1" points="1536.1 148.46 1478.17 284.42 1418.14 148.46 1359.16 148.46 1448.68 343.49 1424.95 394.6 0 394.6 0 434.69 1463.18 434.69 1595.08 148.46 1536.1 148.46"/>
  <path class="cls-1" d="m623.52,235.91c0-23.96,20.06-43.38,44.81-43.38s44.81,19.42,44.81,43.38v107.58h58.98v-107.58c0-23.96,20.06-43.38,44.81-43.38s44.81,19.42,44.81,43.38v107.58h58.98v-107.58c0-50.89-46.47-92.14-103.79-92.14-29.13,0-55.45,10.66-74.3,27.81-18.85-17.16-45.17-27.81-74.3-27.81-57.32,0-103.79,41.25-103.79,92.14v107.58h58.98v-107.58Z"/>
</svg>